<?xml version="1.0" standalone="no"?>
<!DOCTYPE svg PUBLIC "-//W3C//DTD SVG 20010904//EN"
 "http://www.w3.org/TR/2001/REC-SVG-20010904/DTD/svg10.dtd">
<svg version="1.0" xmlns="http://www.w3.org/2000/svg"
 width="256.000000pt" height="256.000000pt" viewBox="0 0 256.000000 256.000000"
 preserveAspectRatio="xMidYMid meet">

<g transform="translate(0.000000,256.000000) scale(0.100000,-0.100000)"
fill="#000000" stroke="none">
<path d="M1150 2425 c-108 -31 -182 -92 -226 -190 -94 -205 -68 -468 61 -638
30 -40 35 -53 35 -101 l0 -56 -117 0 c-145 0 -230 -13 -300 -46 -69 -33 -152
-109 -186 -171 -53 -99 -57 -135 -57 -538 0 -240 4 -384 11 -410 15 -53 91
-129 144 -144 24 -7 139 -11 292 -11 242 0 253 1 265 20 12 19 24 20 208 20
184 0 196 -1 208 -20 12 -19 23 -20 265 -20 153 0 268 4 292 11 53 15 129 91
144 144 7 26 11 170 11 410 0 403 -4 439 -57 538 -34 62 -117 138 -186 171
-70 33 -155 46 -299 46 l-118 0 0 56 c0 48 5 61 35 101 134 175 156 442 54
650 -36 75 -100 134 -178 164 -74 28 -223 35 -301 14z m229 -76 c118 -25 201
-126 226 -276 l7 -43 -332 0 -332 0 7 43 c18 108 85 216 157 253 63 33 177 43
267 23z m228 -456 c-23 -237 -194 -395 -384 -355 -145 30 -252 171 -270 355
l-6 57 333 0 333 0 -6 -57z m-327 -437 c66 0 96 5 134 22 l48 22 -3 -83 c-3
-69 -8 -90 -29 -120 -67 -97 -200 -107 -282 -20 -37 39 -48 73 -48 153 l0 69
48 -22 c36 -16 66 -21 132 -21z m-246 -144 c49 -147 219 -217 361 -147 65 31
109 81 131 148 l16 49 152 -4 c124 -4 161 -9 208 -27 75 -29 149 -99 185 -176
l28 -60 3 -390 c3 -430 2 -433 -61 -479 -27 -20 -44 -21 -263 -24 l-234 -3 0
145 0 146 120 0 c108 0 120 2 130 19 5 11 10 85 10 168 0 163 -7 188 -51 181
l-24 -3 -3 -142 -3 -143 -239 0 -239 0 -3 28 -3 27 -94 3 c-98 3 -121 -5 -121
-39 0 -17 -9 -19 -110 -19 l-109 0 -3 143 -3 142 -24 3 c-44 7 -51 -18 -51
-181 0 -83 5 -157 10 -168 10 -17 22 -19 130 -19 l120 0 0 -146 0 -145 -234 3
c-350 4 -327 -31 -324 503 l3 390 33 67 c49 101 134 166 245 187 23 5 99 9
169 10 l126 1 16 -48z m273 -842 c71 -43 82 -135 24 -194 -31 -30 -34 -31
-141 -34 l-110 -4 0 126 0 126 98 0 c79 0 103 -4 129 -20z m173 -105 l0 -125
-35 0 -34 0 19 43 c11 23 20 60 20 82 0 22 -9 59 -20 83 l-19 42 34 0 35 0 0
-125z"/>
</g>
</svg>
