<?xml version="1.0" standalone="no"?>
<!DOCTYPE svg PUBLIC "-//W3C//DTD SVG 20010904//EN"
 "http://www.w3.org/TR/2001/REC-SVG-20010904/DTD/svg10.dtd">
<svg version="1.0" xmlns="http://www.w3.org/2000/svg"
 width="128.000000pt" height="128.000000pt" viewBox="0 0 128.000000 128.000000"
 preserveAspectRatio="xMidYMid meet">

<g transform="translate(0.000000,128.000000) scale(0.100000,-0.100000)"
fill="#000000" stroke="none">
<path d="M213 1003 c-20 -27 -34 -37 -49 -35 -16 2 -28 -7 -44 -32 -18 -31
-24 -34 -41 -25 -30 16 -39 2 -39 -60 0 -44 5 -65 21 -85 28 -35 407 -289 419
-281 6 3 10 12 10 18 -1 7 -91 72 -201 146 -196 133 -217 152 -207 195 2 11
74 -31 262 -155 142 -93 257 -171 255 -173 -2 -2 -93 -63 -202 -135 -112 -75
-197 -137 -194 -144 2 -8 38 -13 112 -15 l108 -3 109 72 108 72 108 -72 109
-72 108 3 c73 2 110 7 112 15 5 14 -244 183 -270 183 -39 0 -9 -32 88 -95
l100 -65 -65 0 c-64 0 -67 1 -158 64 l-93 64 123 85 c68 46 184 125 259 175
166 110 179 125 179 203 0 62 -9 76 -39 60 -17 -9 -23 -6 -41 25 -16 25 -28
34 -44 32 -15 -2 -29 8 -49 35 -15 21 -31 37 -35 35 -4 -2 -36 -18 -70 -36
-45 -23 -85 -36 -136 -41 -83 -10 -123 -27 -160 -71 l-26 -32 -26 32 c-37 44
-77 61 -160 71 -51 5 -91 18 -136 41 -34 18 -66 34 -70 36 -4 2 -20 -14 -35
-35z m212 -78 c125 -13 174 -48 193 -141 10 -51 34 -51 44 0 20 93 67 129 181
139 47 5 88 16 128 36 l58 29 16 -24 15 -24 -210 -140 -210 -140 -210 140
-210 140 15 24 16 24 57 -29 c34 -17 82 -31 117 -34z m-17 -159 c123 -80 227
-146 232 -146 5 0 113 68 241 152 l232 152 18 -23 19 -23 -255 -169 -255 -168
-254 168 c-250 165 -254 169 -239 191 8 12 20 19 27 17 6 -3 112 -70 234 -151z
m784 28 c-5 -9 -182 -133 -393 -275 l-384 -259 -64 0 -63 0 268 178 c148 97
352 232 454 299 175 116 185 121 188 98 2 -13 -1 -32 -6 -41z"/>
</g>
</svg>
