<?xml version="1.0" standalone="no"?>
<!DOCTYPE svg PUBLIC "-//W3C//DTD SVG 20010904//EN"
 "http://www.w3.org/TR/2001/REC-SVG-20010904/DTD/svg10.dtd">
<svg version="1.0" xmlns="http://www.w3.org/2000/svg"
 width="512.000000pt" height="512.000000pt" viewBox="0 0 512.000000 512.000000"
 preserveAspectRatio="xMidYMid meet">

<g transform="translate(0.000000,512.000000) scale(0.100000,-0.100000)"
fill="#000000" stroke="none">
<path d="M4174 5053 c-9 -32 -16 -80 -15 -106 1 -35 -4 -55 -19 -74 -25 -32
-25 -54 0 -86 14 -17 20 -40 20 -74 0 -46 -2 -49 -40 -71 -65 -37 -74 -65 -78
-234 l-4 -148 -117 0 c-65 0 -120 -2 -123 -5 -3 -3 14 -67 38 -142 l44 -137 0
-598 0 -597 -44 -3 -45 -3 44 -135 c34 -101 45 -151 45 -197 0 -35 3 -63 8
-63 4 0 36 25 71 55 l63 56 72 -63 c39 -35 78 -69 88 -76 14 -11 28 -3 103 63
l87 75 62 -55 c35 -30 66 -55 70 -55 3 0 6 26 6 58 0 40 14 99 45 197 25 76
45 141 45 142 0 2 -20 3 -45 3 l-45 0 0 594 0 594 45 140 c25 77 45 142 45
146 0 3 -56 6 -124 6 l-125 0 -3 153 c-3 149 -4 155 -30 189 -15 19 -41 41
-57 48 -29 11 -31 16 -31 62 0 35 6 58 20 75 26 33 25 68 -1 94 -17 17 -20 29
-16 62 5 35 -25 167 -38 167 -2 0 -12 -26 -21 -57z m86 -1210 c0 -24 5 -43 10
-43 6 0 10 -45 10 -115 l0 -115 -85 0 -85 0 0 115 c0 96 3 115 15 115 11 0 15
12 15 47 0 37 6 53 27 75 l27 28 33 -32 c27 -26 33 -39 33 -75z m0 -544 c0
-27 5 -49 10 -49 6 0 10 -45 10 -115 l0 -115 -85 0 -85 0 0 114 c0 92 3 115
15 120 10 3 15 19 15 48 0 32 6 49 26 69 l27 28 33 -26 c30 -23 34 -31 34 -74z"/>
<path d="M2097 3258 c-9 -35 -13 -81 -10 -103 4 -32 1 -44 -16 -59 -27 -25
-28 -77 -1 -101 16 -14 20 -31 20 -75 0 -56 -1 -58 -47 -97 -89 -73 -199 -141
-448 -274 -476 -253 -648 -435 -760 -804 -44 -148 -69 -274 -124 -630 l-46
-300 -30 -5 c-28 -5 -33 -14 -72 -112 -23 -59 -45 -119 -49 -133 l-6 -25 1616
0 1616 0 -19 47 c-10 27 -31 82 -46 123 -35 91 -41 100 -72 100 -13 0 -25 6
-27 13 -2 6 -21 125 -41 262 -77 525 -133 741 -240 929 -110 196 -290 342
-670 547 -223 120 -327 183 -412 251 l-63 50 0 57 c0 44 4 60 20 74 27 23 27
78 -1 103 -17 15 -20 26 -14 61 6 43 -20 163 -35 163 -4 0 -15 -28 -23 -62z
m-1007 -2358 l0 -80 -60 0 -60 0 0 80 0 80 60 0 60 0 0 -80z m360 0 l0 -80
-55 0 -55 0 0 80 0 80 55 0 55 0 0 -80z m360 0 l0 -80 -55 0 -55 0 0 80 0 80
55 0 55 0 0 -80z m370 0 l0 -80 -60 0 -60 0 0 80 0 80 60 0 60 0 0 -80z m360
0 l0 -80 -55 0 -55 0 0 80 0 80 55 0 55 0 0 -80z m360 0 l0 -80 -55 0 -55 0 0
80 0 80 55 0 55 0 0 -80z m370 0 l0 -80 -60 0 -60 0 0 80 0 80 60 0 60 0 0
-80z"/>
<path d="M3953 2348 c-34 -29 -65 -62 -68 -73 -3 -11 -4 -71 -3 -133 l3 -113
64 55 c36 31 68 56 73 56 4 0 44 -31 87 -70 44 -38 83 -70 87 -70 3 0 43 32
87 70 44 39 84 70 89 70 5 0 27 -17 51 -38 23 -20 52 -46 65 -56 l22 -19 0
130 0 130 -67 57 c-37 31 -70 56 -73 56 -3 0 -41 -31 -85 -70 -44 -38 -84 -70
-88 -70 -5 0 -45 32 -89 70 -45 39 -84 70 -87 70 -3 0 -34 -24 -68 -52z"/>
<path d="M3947 1997 l-68 -62 1 -57 0 -58 -110 0 -110 0 0 -210 0 -210 80 0
80 0 0 -495 0 -495 -1715 0 -1715 0 0 -205 0 -205 2090 0 2090 0 0 700 0 700
80 0 80 0 0 210 0 210 -110 0 -110 0 0 60 c0 65 0 65 -107 155 l-33 27 -86
-76 -86 -76 -33 28 c-18 15 -57 48 -87 75 -30 26 -57 47 -59 47 -2 0 -35 -29
-72 -63z m305 -904 l47 -48 3 -80 c3 -75 5 -80 26 -83 l22 -3 -2 -202 -3 -202
-147 -3 -148 -3 0 206 c0 198 1 205 20 205 18 0 20 7 20 82 l0 82 47 48 c26
26 52 48 58 48 6 0 32 -21 57 -47z"/>
</g>
</svg>
